<?xml version="1.0" encoding="UTF-8" standalone="no"?>
<svg
   width="1000"
   height="185.27409"
   viewBox="0 0 264.58333 49.020439"
   version="1.1"
   id="svg987"
   inkscape:version="1.1.2 (b8e25be833, 2022-02-05)"
   sodipodi:docname="Capcom.svg"
   xmlns:inkscape="http://www.inkscape.org/namespaces/inkscape"
   xmlns:sodipodi="http://sodipodi.sourceforge.net/DTD/sodipodi-0.dtd"
   xmlns="http://www.w3.org/2000/svg"
   xmlns:svg="http://www.w3.org/2000/svg"
   xmlns:rdf="http://www.w3.org/1999/02/22-rdf-syntax-ns#"
   xmlns:cc="http://creativecommons.org/ns#"
   xmlns:dc="http://purl.org/dc/elements/1.1/">
  <defs
     id="defs981" />
  <sodipodi:namedview
     id="base"
     pagecolor="#ffffff"
     bordercolor="#666666"
     borderopacity="1.0"
     inkscape:pageopacity="0.0"
     inkscape:pageshadow="2"
     inkscape:zoom="0.35355339"
     inkscape:cx="487.90368"
     inkscape:cy="59.39697"
     inkscape:document-units="px"
     inkscape:current-layer="layer1"
     inkscape:document-rotation="0"
     showgrid="false"
     units="px"
     fit-margin-top="0"
     fit-margin-left="0"
     fit-margin-right="0"
     fit-margin-bottom="0"
     inkscape:window-width="1366"
     inkscape:window-height="705"
     inkscape:window-x="-8"
     inkscape:window-y="-8"
     inkscape:window-maximized="1"
     inkscape:pagecheckerboard="0" />
  <metadata
     id="metadata984">
    <rdf:RDF>
      <cc:Work
         rdf:about="">
        <dc:format>image/svg+xml</dc:format>
        <dc:type
           rdf:resource="http://purl.org/dc/dcmitype/StillImage" />
        <dc:title />
      </cc:Work>
    </rdf:RDF>
  </metadata>
  <g
     inkscape:label="レイヤー 1"
     inkscape:groupmode="layer"
     id="layer1">
    <g
       id="g918"
       transform="scale(2.7838854)">
      <path
         id="path76"
         style="fill:#0c1e8a;fill-opacity:1;fill-rule:nonzero;stroke:none;stroke-width:23.6206"
         d="M 564.49414,0 C 534.59937,0 502.3987,15.315886 485.51367,38.751953 469.73596,14.762293 450.17414,4.3359375 428.30664,4.3359375 H 330.7793 V 45.210938 c 3.22923,0 6.55181,2.21478 7.10547,4.429687 v 87.931645 c -2.67559,0 -5.53678,-1.29256 -7.10547,-5.16797 L 281.69336,4.890625 h -60.98828 l -48.5332,125.945315 c 0,0 -2.12175,4.89127 -5.44336,5.99804 v -22.9746 H 128.5293 c -0.46191,10.97991 -16.79373,13.19335 -21.22266,13.19335 -9.872651,0 -36.445312,-8.21148 -36.445312,-39.859371 0,-6.550981 10.056346,-32.386718 23.896484,-32.386718 3.598215,0 15.039848,6.828241 4.982422,20.945312 l 29.710936,19.929688 47.33399,-50.19336 C 153.34907,13.379002 126.4074,0.18554687 95.958984,0.18554688 42.535858,0.18554688 0,42.904345 0,92.636719 0,140.06247 48.44097,183.06055 95.958984,183.06055 H 417.97461 v -37 c -7.65817,-2.21424 -9.32031,-5.62814 -9.32031,-9.22657 21.31384,-3.783 58.86679,-22.97522 64.31054,-31.64843 0,23.98966 34.41708,77.41211 113.39844,77.41211 H 638.125 v -30.53907 c 10.42623,15.77778 41.98119,33.21485 78.98047,33.21485 34.41608,0 60.52872,-14.66996 67.63281,-22.32813 v 20.48438 h 80.08984 v -32.94141 h 48.53126 v 32.94141 H 1000 V 140.0625 c -4.42577,0 -9.78126,-5.44328 -10.88867,-9.22656 L 977.66992,50.193359 c -1.10478,-3.321691 3.78331,-6.642578 8.67383,-6.642578 V 4.890625 H 900.25781 L 893.1543,21.775391 887.24805,4.890625 H 803.74609 V 40.875 C 783.63194,14.20958 755.30444,0.55273437 717.10547,0.55273438 c -38.1067,0 -64.77205,14.76428262 -78.42774,33.77148462 C 626.12926,14.209832 593.46626,0 564.49414,0 Z"
         transform="scale(0.09504103)" />
      <path
         style="fill:#ffcc00;fill-opacity:1;fill-rule:nonzero;stroke:none;stroke-width:2.24493"
         d="m 9.78647,15.907404 c -5.18262,0 -8.181699,-3.884773 -8.181699,-7.103084 0,-3.472618 2.999079,-7.146929 7.51524,-7.146929 2.315079,0 4.086469,0.83308 5.480779,2.639544 L 12.11909,7.10309 11.28601,6.524324 C 12.11909,4.349556 9.73385,3.62171 9.006007,3.62171 c -2.639538,0 -3.823384,3.156928 -3.823384,4.928309 0,3.779546 3.156921,5.121241 5.252767,5.121241 0.98216,0 2.14847,-0.359542 2.66585,-1.262774 h 1.08739 v 3.498925 H 9.78647"
         id="path78" />
      <path
         id="path80"
         style="fill:#ffcc00;fill-opacity:1;fill-rule:nonzero;stroke:none;stroke-width:23.6206"
         d="M 232.69922,22.052734 181.49219,152.61133 c -2.21431,2.76796 -5.537,4.15234 -8.21289,4.15234 v 9.59571 h 46.31836 v -9.96485 c -6.55107,-1.01503 -9.22679,-5.72048 -7.65821,-9.22656 l 11.16407,-31.0957 h 44.38086 l 12.08789,33.77148 c 1.10678,3.59821 -3.22916,5.99609 -5.44336,5.99609 v 10.51954 h 54.4375 v -9.41211 c -3.22935,-1.56879 -8.11926,-7.10354 -9.22657,-9.7793 L 270.5293,22.052734 Z m 12.54883,31.646485 14.39453,40.322265 h -28.78906 z"
         transform="scale(0.09504103)" />
      <path
         id="path82"
         style="fill:#ffcc00;fill-opacity:1;fill-rule:nonzero;stroke:none;stroke-width:23.6206"
         d="m 348.21875,21.775391 v 10.611328 c 3.4141,0.461327 5.99523,1.475825 6.55078,3.597656 V 149.84375 c 0,2.86035 -3.8752,4.33487 -6.55078,4.89063 v 11.5332 H 398.875 v -10.88867 c -3.13686,-1.19986 -6.55078,-2.76841 -6.55078,-5.35157 v -27.77343 c 44.23114,-7.53982 80.64062,-29.965365 80.64062,-59.603519 0,-13.00975 -8.11936,-40.875 -47.88672,-40.875 z m 44.10547,20.207031 c 37.92204,0 43.08789,7.657361 43.08789,21.220703 0,18.345142 -25.14186,35.200029 -43.08789,39.212895 z"
         transform="scale(0.09504103)" />
      <path
         style="fill:#ffcc00;fill-opacity:1;fill-rule:nonzero;stroke:none;stroke-width:2.24493"
         d="m 54.95682,15.802176 c -5.18262,0 -8.49739,-3.779545 -8.49739,-7.480163 0,-3.472618 2.99908,-6.664622 7.50647,-6.664622 2.31508,0 4.09523,0.83308 5.48954,2.639544 L 56.97375,7.10309 56.14067,6.524324 C 56.97375,4.349556 54.58852,3.62171 53.86066,3.62171 c -1.75384,0 -3.6743,1.245229 -3.6743,4.700309 0,2.893852 2.49046,5.349241 5.10369,5.349241 0.98216,0 2.14847,-0.359542 2.66585,-1.262774 h 1.08739 v 3.393697 h -4.08647"
         id="path84" />
      <path
         id="path86"
         style="fill:#ffcc00;fill-opacity:1;fill-rule:nonzero;stroke:none;stroke-width:23.6206"
         d="m 718.19531,16.884766 c -110.07561,0 -110.07561,151.781254 0,151.781254 110.07572,0 110.07572,-151.781254 0,-151.781254 z m -0.53515,22.330078 c 60.52754,0 60.52754,106.845706 0,106.845706 -60.43517,0 -60.43517,-106.845706 0,-106.845706 z"
         transform="scale(0.09504103)" />
      <path
         style="fill:#ffcc00;fill-opacity:1;fill-rule:nonzero;stroke:none;stroke-width:2.24493"
         d="m 78.05501,1.920467 h 5.06858 l 1.76265,5.58601 1.8152,-5.58601 h 5.22647 v 0.947084 c -0.20173,0.06109 -0.77165,0.315696 -0.62236,0.684001 l 1.5522,10.716006 c 0.0789,0.236788 0.39454,0.438449 0.73658,0.482294 v 0.92077 h -5.18261 v -0.92077 c 0.31563,-0.05282 0.8769,-0.377105 0.78049,-0.710307 L 87.99077,5.901693 85.71083,12.645236 H 83.2291 L 81.05435,6.48046 79.80913,14.039545 c -0.07,0.280633 0.26281,0.499858 0.7278,0.710307 v 0.92077 h -4.20046 v -0.92077 c 0.34172,-0.09647 0.52626,-0.271851 0.62235,-0.482294 L 78.72147,3.551552 C 78.82647,3.183228 78.41474,2.981567 78.05501,2.867551 V 1.920467"
         id="path88" />
    </g>
  </g>
</svg>
